<?xml version="1.0" encoding="UTF-8"?>
<svg id="Layer_1" data-name="Layer 1" xmlns="http://www.w3.org/2000/svg" viewBox="0 0 50 500">
  <defs>
    <style>
      .cls-1 {
        fill: #7e898f;
      }
    </style>
  </defs>
  <path class="cls-1" d="M25.83,269.15c0,.78-.63,1.41-1.41,1.41s-1.41-.63-1.41-1.41.63-1.41,1.41-1.41,1.41.63,1.41,1.41Z"/>
  <path class="cls-1" d="M24.5,287.97c-6.89,0-12.49-5.6-12.49-12.49s5.6-12.49,12.49-12.49,12.49,5.6,12.49,12.49-5.6,12.49-12.49,12.49ZM24.5,265.14c-5.71,0-10.35,4.64-10.35,10.35s4.64,10.35,10.35,10.35,10.35-4.64,10.35-10.35-4.64-10.35-10.35-10.35Z"/>
  <path class="cls-1" d="M24.49,282.22h0c-.59,0-1.07-.48-1.07-1.07v-1.04c0-1.87,0-4.07,0-6.03-.43,0-.92,0-1.4,0-.57.02-1.08-.47-1.08-1.06,0-.59.47-1.08,1.06-1.08.77,0,1.58,0,2.12,0h.38c.28,0,.56.11.76.31.2.2.31.47.31.76,0,2.2,0,4.89,0,7.1v1.04c0,.59-.48,1.07-1.07,1.07Z"/>
  <path class="cls-1" d="M26.99,282.46c-1.28,0-3.17,0-4.51-.01h-.46c-.59,0-1.07-.49-1.07-1.08,0-.59.48-1.07,1.07-1.07h.47c1.34,0,3.23.02,4.51.02.59,0,1.07.48,1.07,1.07s-.48,1.07-1.07,1.07Z"/>
  <path class="cls-1" d="M33.25,188h-13.73c-2.78,0-5.04-2.26-5.04-5.04s2.26-5.04,5.04-5.04h13.73c.59,0,1.06.48,1.06,1.06s-.48,1.06-1.06,1.06h-13.73c-1.6,0-2.91,1.3-2.91,2.91s1.31,2.91,2.91,2.91h13.73c.59,0,1.06.48,1.06,1.06s-.48,1.06-1.06,1.06Z"/>
  <path class="cls-1" d="M15.55,184.02c-.59,0-1.06-.48-1.06-1.06v-15.43c0-.59.48-1.06,1.06-1.06s1.06.48,1.06,1.06v15.43c0,.59-.48,1.06-1.06,1.06Z"/>
  <path class="cls-1" d="M31.3,184.08h-11.58c-.59,0-1.06-.48-1.06-1.06s.48-1.06,1.06-1.06h11.58c.59,0,1.06.48,1.06,1.06s-.48,1.06-1.06,1.06Z"/>
  <path class="cls-1" d="M15.55,168.59c-.59,0-1.06-.48-1.06-1.06,0-2.78,2.26-5.04,5.04-5.04h13.73c.59,0,1.06.48,1.06,1.06s-.48,1.06-1.06,1.06h-13.73c-1.6,0-2.91,1.31-2.91,2.91,0,.59-.48,1.06-1.06,1.06Z"/>
  <path class="cls-1" d="M33.25,180.05c-.59,0-1.06-.48-1.06-1.06v-15.43c0-.59.48-1.06,1.06-1.06s1.06.48,1.06,1.06v15.43c0,.59-.48,1.06-1.06,1.06Z"/>
  <path class="cls-1" d="M19.87,239.4h0c-1.91,0-3.7-.75-5.05-2.09-2.78-2.78-2.79-7.31,0-10.09.42-.41,1.09-.42,1.5,0,.42.42.42,1.09,0,1.5-1.95,1.95-1.95,5.13,0,7.08.95.95,2.21,1.47,3.54,1.47h0c1.34,0,2.59-.52,3.53-1.46.41-.42,1.09-.42,1.5,0,.42.41.42,1.09,0,1.5-1.34,1.35-3.13,2.09-5.04,2.09Z"/>
  <path class="cls-1" d="M34.54,221.43c-.27,0-.54-.1-.75-.31-.42-.41-.42-1.09,0-1.5,1.16-1.16,1.16-3.05,0-4.21-1.16-1.16-3.05-1.16-4.2,0-.41.42-1.09.41-1.5,0-.42-.41-.41-1.09,0-1.5,1.99-1.99,5.22-1.99,7.21,0,1.99,1.99,1.99,5.22,0,7.21-.21.21-.48.31-.75.31Z"/>
  <path class="cls-1" d="M22.71,232.51c-.82,0-1.6-.32-2.18-.9-1.2-1.2-1.2-3.16,0-4.37.42-.41,1.09-.41,1.5,0,.42.41.42,1.09,0,1.5-.37.37-.37.98,0,1.36.36.36,1,.36,1.36,0,.41-.41,1.09-.42,1.5,0,.42.42.42,1.09,0,1.5-.58.58-1.36.9-2.18.9Z"/>
  <path class="cls-1" d="M24.15,237.63c-.27,0-.54-.1-.75-.31-.42-.41-.42-1.09,0-1.5l13.07-13.12c.41-.41,1.09-.42,1.5,0,.42.41.42,1.09,0,1.5l-13.07,13.12c-.21.21-.48.31-.75.31Z"/>
  <path class="cls-1" d="M15.56,229.03c-.27,0-.54-.1-.75-.31-.42-.41-.42-1.09,0-1.5l13.29-13.34c.41-.41,1.09-.42,1.5,0,.42.41.42,1.09,0,1.5l-13.29,13.34c-.21.21-.48.31-.75.31Z"/>
  <path class="cls-1" d="M21.27,229.05c-.27,0-.54-.1-.75-.31-.42-.41-.42-1.09,0-1.5l7.64-7.69c.41-.42,1.09-.42,1.5,0,.42.41.42,1.09,0,1.5l-7.64,7.69c-.21.21-.48.31-.75.31Z"/>
  <path class="cls-1" d="M24.14,231.91c-.27,0-.54-.1-.75-.31-.42-.41-.42-1.09,0-1.5l10.44-10.49c.41-.42,1.09-.42,1.5,0,.42.41.42,1.09,0,1.5l-10.44,10.49c-.21.21-.48.31-.75.31Z"/>
  <path class="cls-1" d="M15.55,32.91c-.59,0-1.06-.48-1.06-1.06s.48-1.06,1.06-1.06h19.9s0-.01,0-.01c.59,0,1.06.48,1.06,1.06s-.48,1.06-1.06,1.06H15.55s0,.01,0,.01Z"/>
  <path class="cls-1" d="M15.55,25.91c-.59,0-1.06-.48-1.06-1.06s.48-1.06,1.06-1.06h19.9s0-.01,0-.01c.59,0,1.06.48,1.06,1.06s-.48,1.06-1.06,1.06H15.55s0,.01,0,.01Z"/>
  <path class="cls-1" d="M15.55,18.97c-.59,0-1.06-.48-1.06-1.06,0-.59.48-1.06,1.06-1.06h19.9s0-.01,0-.01c.59,0,1.06.48,1.06,1.06s-.48,1.06-1.06,1.06H15.55s0,.01,0,.01Z"/>
  <path class="cls-1" d="M16.61,70.44c-2.27,0-4.11-1.84-4.11-4.11s1.84-4.11,4.11-4.11,4.11,1.84,4.11,4.11-1.84,4.11-4.11,4.11ZM16.61,64.41c-1.06,0-1.91.86-1.91,1.91s.86,1.91,1.91,1.91,1.91-.86,1.91-1.91-.86-1.91-1.91-1.91Z"/>
  <path class="cls-1" d="M23.47,74.98h-8.15c-.96,0-1.74-.78-1.74-1.74v-1.3c0-.61.49-1.1,1.1-1.1s1.1.49,1.1,1.1v.84h7.69c.61,0,1.1.49,1.1,1.1s-.49,1.1-1.1,1.1Z"/>
  <path class="cls-1" d="M23.13,67.44h-3.51c-.61,0-1.1-.49-1.1-1.1s.49-1.1,1.1-1.1h3.51c.61,0,1.1.49,1.1,1.1s-.49,1.1-1.1,1.1Z"/>
  <path class="cls-1" d="M23.13,71.74c-.61,0-1.1-.49-1.1-1.1v-7.5c0-.61.49-1.1,1.1-1.1s1.1.49,1.1,1.1v7.5c0,.61-.49,1.1-1.1,1.1Z"/>
  <path class="cls-1" d="M32.35,84.38c-2.33,0-4.23-1.9-4.23-4.23s1.9-4.23,4.23-4.23c.03,0,2.82,0,2.99.02l-.18,2.19c-.16,0-2.61,0-2.81,0-1.12,0-2.03.91-2.03,2.03s.91,2.03,2.03,2.03c.04,0,1.85,0,1.98,0l.06,2.2s-1.99,0-2.03,0Z"/>
  <path class="cls-1" d="M35.25,89.14c-.61,0-1.1-.49-1.1-1.1v-11.01c0-.61.49-1.1,1.1-1.1s1.1.49,1.1,1.1v11.01c0,.61-.49,1.1-1.1,1.1Z"/>
  <path class="cls-1" d="M29.53,89.27c-.19,0-.38-.05-.55-.15-.53-.3-.71-.98-.4-1.5l2.55-4.42c.3-.53.98-.71,1.5-.4.53.3.71.98.4,1.5l-2.55,4.42c-.2.35-.57.55-.95.55Z"/>
  <path class="cls-1" d="M33.8,74.13c-.61,0-1.1-.49-1.1-1.1,0-3.13-2.54-5.67-5.67-5.67-.61,0-1.1-.49-1.1-1.1s.49-1.1,1.1-1.1c4.34,0,7.87,3.53,7.87,7.87,0,.61-.49,1.1-1.1,1.1Z"/>
  <path class="cls-1" d="M24.59,85.67c-4.34,0-7.87-3.53-7.87-7.87,0-.61.49-1.1,1.1-1.1s1.1.49,1.1,1.1c0,3.13,2.54,5.67,5.67,5.67.61,0,1.1.49,1.1,1.1s-.49,1.1-1.1,1.1Z"/>
  <path class="cls-1" d="M30.78,131.14h0c-.58,0-1.05-.48-1.05-1.07v-6.12c0-1.39-.48-2.15-.97-2.29-.47-.13-1.35.23-2.25,1.73-.3.51-.95.67-1.44.36-.5-.31-.65-.97-.35-1.47,1.28-2.14,3-3.14,4.61-2.68,1.55.44,2.51,2.11,2.51,4.35v6.13c0,.59-.48,1.07-1.06,1.07Z"/>
  <path class="cls-1" d="M35.96,131.2h0c-.58,0-1.05-.48-1.05-1.07v-6.18c0-1.39-.48-2.15-.97-2.29-.48-.14-1.35.23-2.25,1.73-.3.51-.95.67-1.44.36-.5-.31-.65-.97-.35-1.47,1.28-2.14,3-3.14,4.61-2.68,1.55.44,2.51,2.11,2.51,4.35v6.18c0,.59-.47,1.07-1.06,1.07Z"/>
  <path class="cls-1" d="M25.56,131.14h0c-.58,0-1.05-.48-1.05-1.07v-8.3c-.23,0-.48,0-.73,0h-.02c-.57,0-1.04-.47-1.05-1.06,0-.59.46-1.08,1.04-1.09.56,0,1.15,0,1.55,0h.26c.31.03.55.11.74.31.2.2.31.47.31.76v9.38c0,.59-.48,1.07-1.06,1.07Z"/>
  <path class="cls-1" d="M17.21,130.2c-2.24,0-4.57-1.08-5.09-3.33-.13-.58.22-1.15.78-1.29.56-.13,1.13.22,1.26.8.28,1.21,1.98,1.79,3.47,1.65.4-.04,2.41-.3,2.5-1.9.06-1.12-.59-1.44-2.86-1.95-1.99-.45-4.72-1.07-4.62-4.23.06-2.04,1.59-3.53,3.88-3.8,2.11-.25,4.56.67,5.14,2.9.15.57-.18,1.16-.74,1.31-.56.16-1.14-.19-1.29-.76-.26-1.01-1.67-1.46-2.87-1.32-.46.05-1.98.34-2.02,1.74-.04,1.19.67,1.54,2.97,2.06,1.97.45,4.66,1.06,4.5,4.16-.11,2.15-1.84,3.69-4.41,3.92-.2.02-.41.03-.62.03Z"/>
  <path class="cls-1" d="M17.07,131.98h0c-.58,0-1.05-.49-1.05-1.08v-1.77c0-.59.48-1.07,1.06-1.07s1.05.48,1.05,1.07v1.78c0,.59-.48,1.07-1.06,1.07Z"/>
  <path class="cls-1" d="M17.07,117.92h0c-.58,0-1.05-.49-1.05-1.08v-1.77c0-.59.48-1.07,1.06-1.07s1.05.48,1.05,1.07v1.78c0,.59-.48,1.07-1.06,1.07Z"/>
  <path class="cls-1" d="M25.13,328.44c-.58,0-1.05-.47-1.05-1.06l-.02-3.83c0-.59.47-1.07,1.05-1.07,0,0,0,0,0,0,.58,0,1.05.47,1.05,1.06l.02,3.83c0,.59-.47,1.07-1.05,1.07,0,0,0,0,0,0Z"/>
  <path class="cls-1" d="M20.61,333c-3.07,0-5.57-2.52-5.57-5.62,0-.59.47-1.07,1.05-1.07s1.05.48,1.05,1.07c0,1.92,1.55,3.49,3.46,3.49.93,0,1.8-.36,2.45-1.02.65-.66,1.01-1.53,1.01-2.47,0-.59.47-1.06,1.05-1.07.58,0,1.05.48,1.05,1.07,0,1.5-.58,2.91-1.63,3.97-1.05,1.06-2.45,1.65-3.94,1.65Z"/>
  <path class="cls-1" d="M25.11,324.62c-.58,0-1.05-.48-1.05-1.07,0-3.1,2.5-5.62,5.57-5.62,1.49,0,2.89.58,3.94,1.65,1.05,1.06,1.63,2.47,1.63,3.97,0,.59-.47,1.07-1.05,1.07h0c-.58,0-1.05-.48-1.05-1.07,0-.93-.36-1.81-1.01-2.47-.65-.66-1.52-1.02-2.45-1.02-1.91,0-3.46,1.57-3.46,3.49,0,.59-.47,1.07-1.05,1.07Z"/>
  <path class="cls-1" d="M16.07,325.23c-2.25,0-4.08-1.84-4.08-4.11s1.83-4.11,4.08-4.11,4.08,1.84,4.08,4.11-1.83,4.11-4.08,4.11ZM16.07,319.13c-1.09,0-1.97.89-1.97,1.98s.88,1.98,1.97,1.98,1.97-.89,1.97-1.98-.88-1.98-1.97-1.98Z"/>
  <path class="cls-1" d="M35.83,332.71c-.27,0-.54-.11-.75-.32l-4.06-4.16c-.41-.42-.4-1.09,0-1.51.41-.41,1.08-.41,1.49,0l4.06,4.16c.41.42.4,1.09,0,1.51-.21.2-.47.31-.74.31Z"/>
  <path class="cls-1" d="M31.74,332.68c-.27,0-.54-.11-.75-.32-.41-.42-.4-1.09,0-1.51l4.12-4.11c.41-.41,1.08-.41,1.49,0,.41.42.4,1.09,0,1.51l-4.12,4.11c-.21.2-.47.31-.74.31Z"/>
  <path class="cls-1" d="M30.43,370.29H13.03c-.59,0-1.06-.47-1.06-1.05s.48-1.05,1.06-1.05h17.4c.59,0,1.06.47,1.06,1.05s-.48,1.05-1.06,1.05Z"/>
  <path class="cls-1" d="M32.39,372.25c-.59,0-1.06-.47-1.06-1.05,0-.5-.41-.9-.91-.9-.59,0-1.06-.47-1.06-1.05s.48-1.05,1.06-1.05c1.67,0,3.03,1.35,3.03,3.01,0,.58-.48,1.05-1.06,1.05Z"/>
  <path class="cls-1" d="M32.39,381.42c-.59,0-1.06-.47-1.06-1.05v-9.17c0-.58.48-1.05,1.06-1.05s1.06.47,1.06,1.05v9.17c0,.58-.48,1.05-1.06,1.05Z"/>
  <path class="cls-1" d="M30.43,383.38c-.59,0-1.06-.47-1.06-1.05s.48-1.05,1.06-1.05c.5,0,.91-.4.91-.9,0-.58.48-1.05,1.06-1.05s1.06.47,1.06,1.05c0,1.66-1.36,3.01-3.03,3.01Z"/>
  <path class="cls-1" d="M24.05,388.84c-.2,0-.4-.05-.58-.17-.49-.32-.63-.97-.31-1.46l3.56-5.46c.2-.3.53-.48.89-.48h2.82c.59,0,1.06.47,1.06,1.05s-.48,1.05-1.06,1.05h-2.24l-3.24,4.98c-.2.31-.54.48-.89.48Z"/>
  <path class="cls-1" d="M23.8,389h0c-.44,0-.85-.23-1.1-.61-.32-.49-.18-1.14.32-1.46.23-.15.49-.19.73-.16.29-.09.61-.05.88.13.49.32.63.97.31,1.46-.26.4-.69.64-1.14.64Z"/>
  <path class="cls-1" d="M23.59,388.87c-.35,0-.69-.17-.89-.48l-3.26-5.01h-6.41c-.59,0-1.06-.47-1.06-1.05s.48-1.05,1.06-1.05h6.99c.36,0,.7.18.89.48l3.58,5.49c.32.49.18,1.14-.31,1.46-.18.11-.38.17-.58.17Z"/>
  <path class="cls-1" d="M13.03,383.38c-1.67,0-3.03-1.35-3.03-3.01,0-.58.48-1.05,1.06-1.05s1.06.47,1.06,1.05c0,.5.41.9.91.9.59,0,1.06.47,1.06,1.05s-.48,1.05-1.06,1.05Z"/>
  <path class="cls-1" d="M11.06,381.42c-.59,0-1.06-.47-1.06-1.05v-9.17c0-.58.48-1.05,1.06-1.05s1.06.47,1.06,1.05v9.17c0,.58-.48,1.05-1.06,1.05Z"/>
  <path class="cls-1" d="M11.06,372.25c-.59,0-1.06-.47-1.06-1.05,0-1.66,1.36-3.01,3.03-3.01.59,0,1.06.47,1.06,1.05s-.48,1.05-1.06,1.05c-.5,0-.91.4-.91.9,0,.58-.48,1.05-1.06,1.05Z"/>
  <path class="cls-1" d="M17.61,367.07c-.59,0-1.06-.47-1.06-1.05v-1.02c0-.58.48-1.05,1.06-1.05s1.06.47,1.06,1.05v1.02c0,.58-.48,1.05-1.06,1.05Z"/>
  <path class="cls-1" d="M17.61,366.05c-.59,0-1.06-.47-1.06-1.05,0-1.66,1.36-3.01,3.03-3.01.59,0,1.06.47,1.06,1.05s-.48,1.05-1.06,1.05c-.5,0-.91.4-.91.9,0,.58-.48,1.05-1.06,1.05Z"/>
  <path class="cls-1" d="M36.97,364.09h-17.4c-.59,0-1.06-.47-1.06-1.05s.48-1.05,1.06-1.05h17.4c.59,0,1.06.47,1.06,1.05s-.48,1.05-1.06,1.05Z"/>
  <path class="cls-1" d="M38.94,366.05c-.59,0-1.06-.47-1.06-1.05,0-.5-.41-.9-.91-.9-.59,0-1.06-.47-1.06-1.05s.48-1.05,1.06-1.05c1.67,0,3.03,1.35,3.03,3.01,0,.58-.48,1.05-1.06,1.05Z"/>
  <path class="cls-1" d="M38.94,375.22c-.59,0-1.06-.47-1.06-1.05v-9.17c0-.58.48-1.05,1.06-1.05s1.06.47,1.06,1.05v9.17c0,.58-.48,1.05-1.06,1.05Z"/>
  <path class="cls-1" d="M36.97,377.18c-.59,0-1.06-.47-1.06-1.05s.48-1.05,1.06-1.05c.5,0,.91-.4.91-.9,0-.58.48-1.05,1.06-1.05s1.06.47,1.06,1.05c0,1.66-1.36,3.01-3.03,3.01Z"/>
  <path class="cls-1" d="M36.97,377.18h-1.14c-.59,0-1.06-.47-1.06-1.05s.48-1.05,1.06-1.05h1.14c.59,0,1.06.47,1.06,1.05s-.48,1.05-1.06,1.05Z"/>
  <path class="cls-1" d="M33.33,485H15.68c-1.27,0-2.4-.65-3.03-1.73s-.63-2.38,0-3.46l8.82-15.09c.63-1.08,1.77-1.73,3.03-1.73s2.4.65,3.03,1.73l8.82,15.09c.63,1.08.63,2.38,0,3.46-.63,1.08-1.77,1.73-3.03,1.73ZM24.5,465.12c-.23,0-.82.07-1.17.67h0s-8.82,15.09-8.82,15.09c-.35.6-.12,1.14,0,1.34.12.2.47.67,1.17.67h17.65c.71,0,1.06-.47,1.17-.67.12-.2.35-.73,0-1.34l-8.82-15.09c-.35-.6-.94-.67-1.17-.67ZM22.4,465.25h0,0Z"/>
  <path class="cls-1" d="M24.5,477.03c-.56,0-1.03-.43-1.07-.98l-.39-5.3c-.02-.29.08-.58.28-.8.2-.22.49-.34.79-.34h.79c.3,0,.58.12.79.34.2.22.31.51.28.8l-.39,5.3c-.04.55-.51.98-1.07.98Z"/>
  <path class="cls-1" d="M25.86,479.82c0,.73-.6,1.32-1.33,1.32s-1.33-.59-1.33-1.32.6-1.32,1.33-1.32,1.33.59,1.33,1.32Z"/>
  <path class="cls-1" d="M19.43,428.69h-2.23c-1.77,0-3.22-1.48-3.22-3.31v-9.17c0-1.83,1.44-3.31,3.22-3.31h6.68c1.77,0,3.22,1.48,3.22,3.31v2.29h-1.98v-2.29c0-.7-.56-1.28-1.24-1.28h-6.68c-.68,0-1.24.57-1.24,1.28v9.17c0,.7.56,1.28,1.24,1.28h2.23v2.03Z"/>
  <path class="cls-1" d="M23.88,433.27h-2.23c-1.77,0-3.22-1.48-3.22-3.31v-9.17c0-1.83,1.44-3.31,3.22-3.31h6.68c1.77,0,3.22,1.48,3.22,3.31v2.29h-1.98v-2.29c0-.7-.56-1.28-1.24-1.28h-6.68c-.68,0-1.24.57-1.24,1.28v9.17c0,.7.56,1.28,1.24,1.28h2.23v2.03Z"/>
  <path class="cls-1" d="M32.79,437.86h-6.68c-1.77,0-3.22-1.48-3.22-3.31v-9.17c0-1.83,1.44-3.31,3.22-3.31h6.68c1.77,0,3.22,1.48,3.22,3.31v9.17c0,1.83-1.44,3.31-3.22,3.31ZM26.11,424.1c-.68,0-1.24.57-1.24,1.28v9.17c0,.7.56,1.28,1.24,1.28h6.68c.68,0,1.24-.57,1.24-1.28v-9.17c0-.7-.56-1.28-1.24-1.28h-6.68Z"/>
  <path class="cls-1" d="M30.57,428.75h-2.23c-.58,0-1.05-.48-1.05-1.08s.47-1.08,1.05-1.08h2.23c.58,0,1.05.48,1.05,1.08s-.47,1.08-1.05,1.08Z"/>
  <path class="cls-1" d="M30.57,433.34h-2.23c-.58,0-1.05-.48-1.05-1.08s.47-1.08,1.05-1.08h2.23c.58,0,1.05.48,1.05,1.08s-.47,1.08-1.05,1.08Z"/>
</svg>