<svg width="367" height="1090" viewBox="0 0 367 1090" fill="none" xmlns="http://www.w3.org/2000/svg">
    <path fill-rule="evenodd" clip-rule="evenodd" d="M183.5 697.907C186.247 691.316 188.994 684.998 191.466 678.407C208.772 636.109 209.322 634.461 209.322 583.375V379.303H157.403V583.924C157.403 634.736 158.228 636.659 175.259 678.132C177.731 684.449 180.753 691.041 183.5 697.907ZM207.948 777.558C218.662 751.191 229.375 724.824 240.088 698.457C261.24 646.546 262.064 644.349 262.064 583.375V352.936C262.064 335.083 256.845 326.569 235.693 326.569H157.403V272.461H313.983V582.276C313.983 655.885 312.06 660.554 288.161 718.507C252.999 804.2 218.112 890.168 182.951 975.862C147.789 889.619 112.902 803.102 77.4656 717.134C55.2148 663.3 52.4678 656.434 52.4678 585.297V379.303H104.386V583.924C104.386 644.624 105.485 647.096 126.362 698.182L158.777 777.833C172.512 810.517 195.312 808.87 207.948 777.558ZM26.3713 326.294H104.661V245.819C104.661 225.495 112.902 219.452 131.032 219.452H340.629C361.781 219.452 367 227.967 367 245.819V582.276C367 665.772 364.802 670.991 337.058 738.557C293.93 844.3 250.802 950.044 207.674 1055.51C190.917 1096.99 175.259 1096.44 158.777 1055.51C115.649 949.22 72.521 842.927 29.1183 736.909C3.29641 674.287 0 666.322 0 585.297V352.936C0 338.105 3.84581 326.294 26.3713 326.294Z" fill="#E5E5E5"  fill-opacity="0.5"></path>
    <path fill-rule="evenodd" clip-rule="evenodd" d="M52.7425 259.278C52.7425 273.835 40.9304 274.933 26.3713 274.933C11.8121 274.933 0 273.835 0 259.278V136.78C0 118.927 4.94461 110.413 26.3713 110.413H314.257V52.7345H15.6579C1.0988 52.7345 0 40.9241 0 26.3672C0 11.8103 1.0988 0 15.6579 0H340.629C361.231 0 367 6.59181 367 26.3672V136.78C367 153.26 361.781 163.147 340.629 163.147H52.7425V259.278Z" fill="#E5E5E5"  fill-opacity="0.5"></path>
</svg>