<?xml version="1.0" encoding="utf-8"?>
<!-- Generator: Adobe Illustrator 23.0.0, SVG Export Plug-In . SVG Version: 6.00 Build 0)  -->
<svg version="1.1" id="Layer_1" xmlns="http://www.w3.org/2000/svg" xmlns:xlink="http://www.w3.org/1999/xlink" x="0px" y="0px"
	 viewBox="0 0 90.71 90.71" style="enable-background:new 0 0 90.71 90.71;" xml:space="preserve">
<style type="text/css">
	.st0{fill-rule:evenodd;clip-rule:evenodd;fill:none;stroke:#000000;stroke-width:2.8346;stroke-miterlimit:2.6131;}
	.st1{fill-rule:evenodd;clip-rule:evenodd;}
</style>
<polygon class="st0" points="17.23,7.38 63.54,7.38 74.55,18.39 74.55,83.8 17.23,83.8 "/>
<polyline class="st0" points="74.69,18.73 63.44,18.73 63.44,7.52 "/>
<path class="st1" d="M37.72,75.83c2.23,0,4.06-1.82,4.06-4.06c0-2.23-1.82-4.06-4.06-4.06c-2.23,0-4.06,1.82-4.06,4.06
	C33.66,74.01,35.48,75.83,37.72,75.83z"/>
<line class="st0" x1="67.79" y1="71.52" x2="23.99" y2="71.52"/>
<g>
	<path class="st0" d="M52.85,36.55c0.8,0.67,1.22,1.76,1.22,2.89c0,1.13-0.41,2.22-1.22,2.89l-15.62,13.1
		c-0.7,0.59-1.6,0.93-2.59,0.93c-2.24,0-4.05-1.81-4.05-4.05V26.56c0-2.24,1.81-4.05,4.05-4.05c0.98,0,1.89,0.35,2.59,0.93
		L52.85,36.55z"/>
	<path class="st0" d="M46.53,23.45l15.62,13.1c0.8,0.67,1.22,1.76,1.22,2.89c0,1.13-0.41,2.22-1.22,2.89l-15.62,13.1"/>
</g>
</svg>
