<?xml version="1.0" encoding="utf-8"?>
<!-- Generator: Adobe Illustrator 23.0.0, SVG Export Plug-In . SVG Version: 6.00 Build 0)  -->
<svg version="1.1" id="Layer_1" xmlns="http://www.w3.org/2000/svg" xmlns:xlink="http://www.w3.org/1999/xlink" x="0px" y="0px"
	 viewBox="0 0 90.71 90.71" style="enable-background:new 0 0 90.71 90.71;" xml:space="preserve">
<style type="text/css">
	.st0{fill-rule:evenodd;clip-rule:evenodd;fill:none;stroke:#000000;stroke-width:2.8346;stroke-miterlimit:2.6131;}
</style>
<path class="st0" d="M28.56,46.29c6.79-5.18,27.25-7.64,34.62-4.2c5,2.34,2.33,8.91-2.76,6.39c-6.72-3.32-17.36-19.06-18.17-27.42
	c-0.62-6.39,6.7-7.94,6.57-0.96c-0.15,8.24-10.12,27.17-16.7,32.1C27.92,55.35,23.66,50.03,28.56,46.29z"/>
<g>
	<path class="st0" d="M32.09,61.62h3.29c1.72,0,3.11,1.39,3.11,3.11c0,1.72-1.39,3.11-3.11,3.11h-3.29"/>
	<line class="st0" x1="33.51" y1="73.24" x2="33.51" y2="61.39"/>
	<path class="st0" d="M42.21,61.62c0.64,0,2.65,0,3.29,0c1.72,0,3.11,1.94,3.11,4.33c0,0.01,0,2.2,0,2.2
		c-0.01,2.38-1.4,4.31-3.11,4.31c-0.64,0-2.65,0-3.29,0"/>
	<path class="st0" d="M59.79,61.62h-7.46 M52.33,67.41h6.31"/>
	<line class="st0" x1="43.63" y1="73.24" x2="43.63" y2="61.39"/>
	<line class="st0" x1="53.76" y1="73.24" x2="53.76" y2="61.39"/>
</g>
<polygon class="st0" points="17.46,7.38 63.76,7.38 74.78,18.39 74.78,83.8 17.46,83.8 "/>
<polyline class="st0" points="74.91,18.73 63.66,18.73 63.66,7.52 "/>
</svg>
