<svg width="90" height="45" viewBox="0 0 90 45" fill="none" xmlns="http://www.w3.org/2000/svg">
<path fill-rule="evenodd" clip-rule="evenodd" d="M9.7 28.4C9.8 28.2 9.9 27.9 10 27.7C10.6 26.2 10.7 26.1 10.7 24.2V16.8H8.7V24.2C8.7 26 8.7 26.1 9.3 27.6C9.5 27.9 9.6 28.2 9.7 28.4ZM10.6 31.3C11 30.3 11.4 29.4 11.8 28.4C12.6 26.5 12.6 26.4 12.6 24.2V15.8C12.6 15.2 12.4 14.8 11.6 14.8H8.7V12.8H14.4V24.1C14.4 26.8 14.3 26.9 13.5 29.1C12.2 32.2 10.9 35.3 9.7 38.5C8.4 35.4 7.1 32.2 5.9 29.1C5.1 27.1 5 26.9 5 24.3V16.8H6.9V24.2C6.9 26.4 6.9 26.5 7.7 28.4L8.9 31.3C9.3 32.5 10.1 32.5 10.6 31.3ZM4 14.9H6.9V12C6.9 11.3 7.2 11 7.9 11H15.5C16.3 11 16.5 11.3 16.5 12V24.2C16.5 27.2 16.4 27.4 15.4 29.9C13.8 33.7 12.3 37.6 10.7 41.4C10.1 42.9 9.5 42.9 8.9 41.4C7.3 37.5 5.8 33.7 4.2 29.8C3.1 27.6 3 27.3 3 24.3V15.8C3 15.3 3.1 14.9 4 14.9Z" fill="#454545"/>
<path fill-rule="evenodd" clip-rule="evenodd" d="M4.9 12.4C4.9 13 4.5 13 4 13C3.5 13 3 13 3 12.4V8C3 7.4 3.2 7 4 7H14.5V4.9H3.6C3 4.9 3 4.5 3 4C3 3.5 3 3 3.6 3H15.4C16.2 3 16.4 3.2 16.4 4V8C16.4 8.6 16.2 9 15.4 9H4.9V12.4Z" fill="#454545"/>
<path d="M27.7 24.8C27.8 25.6 28.6 26 29.7 26C30.7 26 31.4 25.5 31.4 24.8C31.4 24.2 31 23.8 29.8 23.6L28.8 23.4C27 23 26.1 22.1 26.1 20.8C26.1 19.1 27.6 18 29.6 18C31.8 18 33.1 19.1 33.2 20.8H31.4C31.3 20 30.6 19.5 29.7 19.5C28.7 19.5 28.1 19.9 28.1 20.6C28.1 21.2 28.5 21.5 29.6 21.7L30.6 21.9C32.6 22.3 33.4 23.1 33.4 24.5C33.4 26.3 32 27.4 29.7 27.4C27.5 27.4 26 26.3 26 24.6H27.7V24.8Z" fill="#454545"/>
<path d="M34.1 23.9C34.1 21.7 35.4 20.3 37.5 20.3C39.6 20.3 40.9 21.6 40.9 23.9C40.9 26.2 39.6 27.5 37.5 27.5C35.4 27.5 34.1 26.2 34.1 23.9ZM39 24C39 22.6 38.4 21.8 37.5 21.8C36.6 21.8 36 22.6 36 24C36 25.4 36.6 26.2 37.5 26.2C38.4 26.1 39 25.3 39 24Z" fill="#454545"/>
<path d="M41.9 18.1H43.8V27.3H41.9V18.1Z" fill="#454545"/>
<path d="M51.5 27.4H49.7V26.2C49.4 27.1 48.7 27.6 47.6 27.6C46.1 27.6 45.1 26.6 45.1 25V20.6H47V24.6C47 25.5 47.5 26 48.3 26C49.1 26 49.7 25.4 49.7 24.5V20.6H51.6V27.4H51.5Z" fill="#454545"/>
<path d="M55 18.9V20.5H56.3V21.9H55V25.2C55 25.7 55.3 26 55.8 26C56 26 56.1 26 56.3 26V27.4C56.1 27.4 55.8 27.5 55.4 27.5C53.8 27.5 53.2 27 53.2 25.6V22H52.2V20.6H53.2V19H55V18.9Z" fill="#454545"/>
<path d="M57.3 18.6C57.3 18.1 57.7 17.6 58.3 17.6C58.9 17.6 59.3 18 59.3 18.6C59.3 19.1 58.9 19.6 58.3 19.6C57.7 19.6 57.3 19.2 57.3 18.6ZM57.3 20.5H59.2V27.4H57.3V20.5Z" fill="#454545"/>
<path d="M60.2 23.9C60.2 21.7 61.5 20.3 63.6 20.3C65.7 20.3 67 21.6 67 23.9C67 26.2 65.7 27.5 63.6 27.5C61.5 27.5 60.2 26.2 60.2 23.9ZM65.1 24C65.1 22.6 64.5 21.8 63.6 21.8C62.7 21.8 62.1 22.6 62.1 24C62.1 25.4 62.7 26.2 63.6 26.2C64.5 26.1 65.1 25.3 65.1 24Z" fill="#454545"/>
<path d="M68 20.5H69.8V21.7C70.2 20.8 70.9 20.3 71.9 20.3C73.4 20.3 74.3 21.3 74.3 22.9V27.3H72.4V23.3C72.4 22.4 72 21.9 71.1 21.9C70.2 21.9 69.7 22.5 69.7 23.4V27.3H68V20.5Z" fill="#454545"/>
<path d="M78.3 20.4C80.1 20.4 81.2 21.3 81.2 22.6H79.5C79.4 22 79 21.7 78.3 21.7C77.7 21.7 77.2 22 77.2 22.4C77.2 22.8 77.5 23 78.1 23.1L79.3 23.4C80.7 23.7 81.3 24.3 81.3 25.3C81.3 26.7 80.1 27.5 78.3 27.5C76.4 27.5 75.3 26.6 75.2 25.3H77C77.1 25.9 77.5 26.2 78.3 26.2C79 26.2 79.4 25.9 79.4 25.5C79.4 25.1 79.2 24.9 78.5 24.8L77.3 24.6C76 24.3 75.3 23.7 75.3 22.6C75.4 21.2 76.6 20.4 78.3 20.4Z" fill="#454545"/>
<path d="M27.9 10.8C28 11.6 28.8 12 29.8 12C30.8 12 31.5 11.5 31.5 10.8C31.5 10.2 31.1 9.8 29.9 9.6L28.9 9.4C27.1 9 26.2 8.1 26.2 6.8C26.2 5.1 27.7 4 29.7 4C31.9 4 33.2 5.1 33.3 6.8H31.5C31.4 6 30.7 5.5 29.8 5.5C28.8 5.5 28.2 5.9 28.2 6.6C28.2 7.2 28.6 7.5 29.7 7.7L30.7 7.9C32.7 8.3 33.5 9.1 33.5 10.5C33.5 12.3 32.1 13.4 29.8 13.4C27.6 13.4 26.1 12.3 26.1 10.6H27.9V10.8Z" fill="#454545"/>
<path d="M41 13.4H39.2V12.2C38.9 13.1 38.2 13.6 37.1 13.6C35.6 13.6 34.6 12.6 34.6 11V6.5H36.5V10.5C36.5 11.4 37 11.9 37.8 11.9C38.6 11.9 39.2 11.3 39.2 10.4V6.5H41V13.4Z" fill="#454545"/>
<path d="M42.2 6.5H44V7.7C44.2 6.8 44.8 6.4 45.6 6.4C45.8 6.4 46 6.4 46.1 6.5V8.1C46.1 8.1 45.8 8 45.6 8C44.7 8 44.1 8.6 44.1 9.5V13.3H42.2V6.5Z" fill="#454545"/>
<path d="M51.2 13.4H49.1L46.7 6.5H48.7L50.1 11.7L51.5 6.5H53.5L51.2 13.4Z" fill="#454545"/>
<path d="M60.2 11.3C60 12.6 58.8 13.5 57.1 13.5C55 13.5 53.7 12.1 53.7 9.9C53.7 7.7 55 6.3 57 6.3C59 6.3 60.3 7.7 60.3 9.7V10.3H55.6V10.4C55.6 11.4 56.2 12.1 57.2 12.1C57.9 12.1 58.4 11.8 58.6 11.2H60.2V11.3ZM55.6 9.3H58.5C58.5 8.4 57.9 7.8 57.1 7.8C56.2 7.8 55.6 8.4 55.6 9.3Z" fill="#454545"/>
<path d="M61.2 15.9V14.5C61.3 14.5 61.6 14.5 61.7 14.5C62.4 14.5 62.7 14.3 62.8 13.7L62.9 13.4L60.5 6.5H62.6L64 11.9L65.5 6.5H67.5L65.1 13.5C64.5 15.3 63.7 15.9 61.9 15.9C61.8 16 61.2 16 61.2 15.9Z" fill="#454545"/>
</svg>
